<mxfile host="app.diagrams.net" modified="2023-10-31T11:34:00.082Z" agent="Mozilla/5.0 (Windows NT 10.0; Win64; x64) AppleWebKit/537.36 (KHTML, like Gecko) Chrome/116.0.0.0 Safari/537.36 OPR/102.0.0.0 (Edition Yx GX)" etag="V2_JWvzbc-9bHvMNX5Vn" version="22.0.8" type="device">
  <diagram name="Страница — 1" id="VzC0kfO0NQPAv1FxmYmN">
    <mxGraphModel dx="1948" dy="928" grid="0" gridSize="10" guides="1" tooltips="1" connect="1" arrows="1" fold="1" page="0" pageScale="1" pageWidth="827" pageHeight="1169" math="0" shadow="0">
      <root>
        <mxCell id="0" />
        <mxCell id="1" parent="0" />
        <mxCell id="qO7M0q0AreX4NGmBwgK0-1" value="" style="ellipse;html=1;shape=startState;fillColor=#000000;strokeColor=#ff0000;" vertex="1" parent="1">
          <mxGeometry x="120" y="80" width="30" height="30" as="geometry" />
        </mxCell>
        <mxCell id="qO7M0q0AreX4NGmBwgK0-2" value="" style="edgeStyle=orthogonalEdgeStyle;html=1;verticalAlign=bottom;endArrow=open;endSize=8;strokeColor=#000000;rounded=0;" edge="1" source="qO7M0q0AreX4NGmBwgK0-1" parent="1">
          <mxGeometry relative="1" as="geometry">
            <mxPoint x="135" y="150" as="targetPoint" />
          </mxGeometry>
        </mxCell>
        <mxCell id="qO7M0q0AreX4NGmBwgK0-17" style="edgeStyle=orthogonalEdgeStyle;rounded=0;orthogonalLoop=1;jettySize=auto;html=1;exitX=0.5;exitY=1;exitDx=0;exitDy=0;entryX=0.5;entryY=0;entryDx=0;entryDy=0;" edge="1" parent="1" source="qO7M0q0AreX4NGmBwgK0-4" target="qO7M0q0AreX4NGmBwgK0-5">
          <mxGeometry relative="1" as="geometry" />
        </mxCell>
        <mxCell id="qO7M0q0AreX4NGmBwgK0-4" value="Вход на страницу авторизации" style="rounded=1;whiteSpace=wrap;html=1;" vertex="1" parent="1">
          <mxGeometry x="75" y="150" width="120" height="60" as="geometry" />
        </mxCell>
        <mxCell id="qO7M0q0AreX4NGmBwgK0-12" style="edgeStyle=orthogonalEdgeStyle;rounded=0;orthogonalLoop=1;jettySize=auto;html=1;exitX=0;exitY=0.5;exitDx=0;exitDy=0;entryX=0.5;entryY=0;entryDx=0;entryDy=0;" edge="1" parent="1" source="qO7M0q0AreX4NGmBwgK0-5" target="qO7M0q0AreX4NGmBwgK0-11">
          <mxGeometry relative="1" as="geometry" />
        </mxCell>
        <mxCell id="qO7M0q0AreX4NGmBwgK0-13" style="edgeStyle=orthogonalEdgeStyle;rounded=0;orthogonalLoop=1;jettySize=auto;html=1;exitX=1;exitY=0.5;exitDx=0;exitDy=0;entryX=0.5;entryY=0;entryDx=0;entryDy=0;" edge="1" parent="1" source="qO7M0q0AreX4NGmBwgK0-5" target="qO7M0q0AreX4NGmBwgK0-6">
          <mxGeometry relative="1" as="geometry" />
        </mxCell>
        <mxCell id="qO7M0q0AreX4NGmBwgK0-5" value="" style="rhombus;whiteSpace=wrap;html=1;" vertex="1" parent="1">
          <mxGeometry x="99" y="240" width="72" height="80" as="geometry" />
        </mxCell>
        <mxCell id="qO7M0q0AreX4NGmBwgK0-14" style="edgeStyle=orthogonalEdgeStyle;rounded=0;orthogonalLoop=1;jettySize=auto;html=1;exitX=0.5;exitY=1;exitDx=0;exitDy=0;" edge="1" parent="1" source="qO7M0q0AreX4NGmBwgK0-6" target="qO7M0q0AreX4NGmBwgK0-8">
          <mxGeometry relative="1" as="geometry" />
        </mxCell>
        <mxCell id="qO7M0q0AreX4NGmBwgK0-6" value="Ввод данных от пользователя, нужных для авторизации" style="rounded=1;whiteSpace=wrap;html=1;" vertex="1" parent="1">
          <mxGeometry x="195" y="320" width="120" height="60" as="geometry" />
        </mxCell>
        <mxCell id="qO7M0q0AreX4NGmBwgK0-15" style="edgeStyle=orthogonalEdgeStyle;rounded=0;orthogonalLoop=1;jettySize=auto;html=1;exitX=0.5;exitY=1;exitDx=0;exitDy=0;entryX=0.5;entryY=0;entryDx=0;entryDy=0;" edge="1" parent="1" source="qO7M0q0AreX4NGmBwgK0-8" target="qO7M0q0AreX4NGmBwgK0-9">
          <mxGeometry relative="1" as="geometry" />
        </mxCell>
        <mxCell id="qO7M0q0AreX4NGmBwgK0-8" value="Запись данных на сервере о том, что пользователь авторизован" style="rounded=1;whiteSpace=wrap;html=1;" vertex="1" parent="1">
          <mxGeometry x="177.5" y="400" width="155" height="60" as="geometry" />
        </mxCell>
        <mxCell id="qO7M0q0AreX4NGmBwgK0-21" style="edgeStyle=orthogonalEdgeStyle;rounded=0;orthogonalLoop=1;jettySize=auto;html=1;exitX=0.5;exitY=1;exitDx=0;exitDy=0;entryX=0.5;entryY=0;entryDx=0;entryDy=0;" edge="1" parent="1" source="qO7M0q0AreX4NGmBwgK0-9" target="qO7M0q0AreX4NGmBwgK0-10">
          <mxGeometry relative="1" as="geometry" />
        </mxCell>
        <mxCell id="qO7M0q0AreX4NGmBwgK0-9" value="" style="rhombus;whiteSpace=wrap;html=1;" vertex="1" parent="1">
          <mxGeometry x="99" y="520" width="72" height="80" as="geometry" />
        </mxCell>
        <mxCell id="qO7M0q0AreX4NGmBwgK0-10" value="" style="ellipse;html=1;shape=endState;fillColor=#000000;strokeColor=#ff0000;" vertex="1" parent="1">
          <mxGeometry x="120" y="640" width="30" height="30" as="geometry" />
        </mxCell>
        <mxCell id="qO7M0q0AreX4NGmBwgK0-16" style="edgeStyle=orthogonalEdgeStyle;rounded=0;orthogonalLoop=1;jettySize=auto;html=1;exitX=0.5;exitY=1;exitDx=0;exitDy=0;entryX=0.5;entryY=0;entryDx=0;entryDy=0;" edge="1" parent="1" source="qO7M0q0AreX4NGmBwgK0-11" target="qO7M0q0AreX4NGmBwgK0-9">
          <mxGeometry relative="1" as="geometry">
            <Array as="points">
              <mxPoint x="20" y="490" />
              <mxPoint x="135" y="490" />
            </Array>
          </mxGeometry>
        </mxCell>
        <mxCell id="qO7M0q0AreX4NGmBwgK0-11" value="Переадресация на главную страницу" style="rounded=1;whiteSpace=wrap;html=1;" vertex="1" parent="1">
          <mxGeometry x="-40" y="320" width="120" height="60" as="geometry" />
        </mxCell>
        <mxCell id="qO7M0q0AreX4NGmBwgK0-19" value="[Авторизован]" style="text;html=1;strokeColor=none;fillColor=none;align=center;verticalAlign=middle;whiteSpace=wrap;rounded=0;" vertex="1" parent="1">
          <mxGeometry x="30" y="250" width="60" height="30" as="geometry" />
        </mxCell>
        <mxCell id="qO7M0q0AreX4NGmBwgK0-20" value="[Не авторизован]" style="text;html=1;strokeColor=none;fillColor=none;align=center;verticalAlign=middle;whiteSpace=wrap;rounded=0;" vertex="1" parent="1">
          <mxGeometry x="171" y="250" width="100" height="30" as="geometry" />
        </mxCell>
        <mxCell id="qO7M0q0AreX4NGmBwgK0-22" value="" style="ellipse;html=1;shape=startState;fillColor=#000000;strokeColor=#ff0000;" vertex="1" parent="1">
          <mxGeometry x="520" y="80" width="30" height="30" as="geometry" />
        </mxCell>
        <mxCell id="qO7M0q0AreX4NGmBwgK0-23" value="" style="edgeStyle=orthogonalEdgeStyle;html=1;verticalAlign=bottom;endArrow=open;endSize=8;strokeColor=#000000;rounded=0;" edge="1" parent="1" source="qO7M0q0AreX4NGmBwgK0-22">
          <mxGeometry relative="1" as="geometry">
            <mxPoint x="535" y="150" as="targetPoint" />
          </mxGeometry>
        </mxCell>
        <mxCell id="qO7M0q0AreX4NGmBwgK0-24" style="edgeStyle=orthogonalEdgeStyle;rounded=0;orthogonalLoop=1;jettySize=auto;html=1;exitX=0.5;exitY=1;exitDx=0;exitDy=0;entryX=0.5;entryY=0;entryDx=0;entryDy=0;" edge="1" parent="1" source="qO7M0q0AreX4NGmBwgK0-25" target="qO7M0q0AreX4NGmBwgK0-28">
          <mxGeometry relative="1" as="geometry" />
        </mxCell>
        <mxCell id="qO7M0q0AreX4NGmBwgK0-25" value="Вход на страницу регистрации" style="rounded=1;whiteSpace=wrap;html=1;" vertex="1" parent="1">
          <mxGeometry x="475" y="150" width="120" height="60" as="geometry" />
        </mxCell>
        <mxCell id="qO7M0q0AreX4NGmBwgK0-26" style="edgeStyle=orthogonalEdgeStyle;rounded=0;orthogonalLoop=1;jettySize=auto;html=1;exitX=0;exitY=0.5;exitDx=0;exitDy=0;entryX=0.5;entryY=0;entryDx=0;entryDy=0;" edge="1" parent="1" source="qO7M0q0AreX4NGmBwgK0-28" target="qO7M0q0AreX4NGmBwgK0-37">
          <mxGeometry relative="1" as="geometry" />
        </mxCell>
        <mxCell id="qO7M0q0AreX4NGmBwgK0-27" style="edgeStyle=orthogonalEdgeStyle;rounded=0;orthogonalLoop=1;jettySize=auto;html=1;exitX=1;exitY=0.5;exitDx=0;exitDy=0;entryX=0.5;entryY=0;entryDx=0;entryDy=0;" edge="1" parent="1" source="qO7M0q0AreX4NGmBwgK0-28" target="qO7M0q0AreX4NGmBwgK0-30">
          <mxGeometry relative="1" as="geometry" />
        </mxCell>
        <mxCell id="qO7M0q0AreX4NGmBwgK0-28" value="" style="rhombus;whiteSpace=wrap;html=1;" vertex="1" parent="1">
          <mxGeometry x="499" y="240" width="72" height="80" as="geometry" />
        </mxCell>
        <mxCell id="qO7M0q0AreX4NGmBwgK0-29" style="edgeStyle=orthogonalEdgeStyle;rounded=0;orthogonalLoop=1;jettySize=auto;html=1;exitX=0.5;exitY=1;exitDx=0;exitDy=0;" edge="1" parent="1" source="qO7M0q0AreX4NGmBwgK0-30" target="qO7M0q0AreX4NGmBwgK0-32">
          <mxGeometry relative="1" as="geometry" />
        </mxCell>
        <mxCell id="qO7M0q0AreX4NGmBwgK0-30" value="Ввод данных от пользователя, нужных для регистрации" style="rounded=1;whiteSpace=wrap;html=1;" vertex="1" parent="1">
          <mxGeometry x="595" y="320" width="120" height="60" as="geometry" />
        </mxCell>
        <mxCell id="qO7M0q0AreX4NGmBwgK0-41" style="edgeStyle=orthogonalEdgeStyle;rounded=0;orthogonalLoop=1;jettySize=auto;html=1;exitX=0.5;exitY=1;exitDx=0;exitDy=0;entryX=0.5;entryY=0;entryDx=0;entryDy=0;" edge="1" parent="1" source="qO7M0q0AreX4NGmBwgK0-32" target="qO7M0q0AreX4NGmBwgK0-40">
          <mxGeometry relative="1" as="geometry" />
        </mxCell>
        <mxCell id="qO7M0q0AreX4NGmBwgK0-32" value="Запись данных на сервере о том, что пользователь авторизован" style="rounded=1;whiteSpace=wrap;html=1;" vertex="1" parent="1">
          <mxGeometry x="577.5" y="400" width="155" height="60" as="geometry" />
        </mxCell>
        <mxCell id="qO7M0q0AreX4NGmBwgK0-33" style="edgeStyle=orthogonalEdgeStyle;rounded=0;orthogonalLoop=1;jettySize=auto;html=1;exitX=0.5;exitY=1;exitDx=0;exitDy=0;entryX=0.5;entryY=0;entryDx=0;entryDy=0;" edge="1" parent="1" source="qO7M0q0AreX4NGmBwgK0-34" target="qO7M0q0AreX4NGmBwgK0-35">
          <mxGeometry relative="1" as="geometry" />
        </mxCell>
        <mxCell id="qO7M0q0AreX4NGmBwgK0-34" value="" style="rhombus;whiteSpace=wrap;html=1;" vertex="1" parent="1">
          <mxGeometry x="499" y="580" width="72" height="80" as="geometry" />
        </mxCell>
        <mxCell id="qO7M0q0AreX4NGmBwgK0-35" value="" style="ellipse;html=1;shape=endState;fillColor=#000000;strokeColor=#ff0000;" vertex="1" parent="1">
          <mxGeometry x="520" y="700" width="30" height="30" as="geometry" />
        </mxCell>
        <mxCell id="qO7M0q0AreX4NGmBwgK0-36" style="edgeStyle=orthogonalEdgeStyle;rounded=0;orthogonalLoop=1;jettySize=auto;html=1;exitX=0.5;exitY=1;exitDx=0;exitDy=0;entryX=0.5;entryY=0;entryDx=0;entryDy=0;" edge="1" parent="1" source="qO7M0q0AreX4NGmBwgK0-37" target="qO7M0q0AreX4NGmBwgK0-34">
          <mxGeometry relative="1" as="geometry">
            <Array as="points">
              <mxPoint x="420" y="560" />
              <mxPoint x="535" y="560" />
            </Array>
          </mxGeometry>
        </mxCell>
        <mxCell id="qO7M0q0AreX4NGmBwgK0-37" value="Переадресация на главную страницу" style="rounded=1;whiteSpace=wrap;html=1;" vertex="1" parent="1">
          <mxGeometry x="360" y="320" width="120" height="60" as="geometry" />
        </mxCell>
        <mxCell id="qO7M0q0AreX4NGmBwgK0-38" value="[Авторизован]" style="text;html=1;strokeColor=none;fillColor=none;align=center;verticalAlign=middle;whiteSpace=wrap;rounded=0;" vertex="1" parent="1">
          <mxGeometry x="430" y="250" width="60" height="30" as="geometry" />
        </mxCell>
        <mxCell id="qO7M0q0AreX4NGmBwgK0-39" value="[Не авторизован]" style="text;html=1;strokeColor=none;fillColor=none;align=center;verticalAlign=middle;whiteSpace=wrap;rounded=0;" vertex="1" parent="1">
          <mxGeometry x="571" y="250" width="100" height="30" as="geometry" />
        </mxCell>
        <mxCell id="qO7M0q0AreX4NGmBwgK0-42" style="edgeStyle=orthogonalEdgeStyle;rounded=0;orthogonalLoop=1;jettySize=auto;html=1;exitX=0.5;exitY=1;exitDx=0;exitDy=0;entryX=0.5;entryY=0;entryDx=0;entryDy=0;" edge="1" parent="1" source="qO7M0q0AreX4NGmBwgK0-40" target="qO7M0q0AreX4NGmBwgK0-34">
          <mxGeometry relative="1" as="geometry" />
        </mxCell>
        <mxCell id="qO7M0q0AreX4NGmBwgK0-40" value="Запись в базу данных нового пользователя" style="rounded=1;whiteSpace=wrap;html=1;" vertex="1" parent="1">
          <mxGeometry x="577.5" y="480" width="155" height="60" as="geometry" />
        </mxCell>
        <mxCell id="qO7M0q0AreX4NGmBwgK0-43" value="" style="ellipse;html=1;shape=startState;fillColor=#000000;strokeColor=#ff0000;" vertex="1" parent="1">
          <mxGeometry x="987" y="80" width="30" height="30" as="geometry" />
        </mxCell>
        <mxCell id="qO7M0q0AreX4NGmBwgK0-44" value="" style="edgeStyle=orthogonalEdgeStyle;html=1;verticalAlign=bottom;endArrow=open;endSize=8;strokeColor=#000000;rounded=0;" edge="1" parent="1" source="qO7M0q0AreX4NGmBwgK0-43">
          <mxGeometry relative="1" as="geometry">
            <mxPoint x="1002" y="150" as="targetPoint" />
          </mxGeometry>
        </mxCell>
        <mxCell id="qO7M0q0AreX4NGmBwgK0-64" style="edgeStyle=orthogonalEdgeStyle;rounded=0;orthogonalLoop=1;jettySize=auto;html=1;exitX=0.5;exitY=1;exitDx=0;exitDy=0;" edge="1" parent="1" source="qO7M0q0AreX4NGmBwgK0-46" target="qO7M0q0AreX4NGmBwgK0-63">
          <mxGeometry relative="1" as="geometry" />
        </mxCell>
        <mxCell id="qO7M0q0AreX4NGmBwgK0-46" value="Вход на страницу статей" style="rounded=1;whiteSpace=wrap;html=1;" vertex="1" parent="1">
          <mxGeometry x="942" y="150" width="120" height="60" as="geometry" />
        </mxCell>
        <mxCell id="qO7M0q0AreX4NGmBwgK0-66" style="edgeStyle=orthogonalEdgeStyle;rounded=0;orthogonalLoop=1;jettySize=auto;html=1;exitX=0.5;exitY=1;exitDx=0;exitDy=0;" edge="1" parent="1" source="qO7M0q0AreX4NGmBwgK0-63" target="qO7M0q0AreX4NGmBwgK0-65">
          <mxGeometry relative="1" as="geometry" />
        </mxCell>
        <mxCell id="qO7M0q0AreX4NGmBwgK0-63" value="Запрос клиента на информацию о статьях с учетом фильтрации" style="rounded=1;whiteSpace=wrap;html=1;" vertex="1" parent="1">
          <mxGeometry x="903" y="235" width="198" height="60" as="geometry" />
        </mxCell>
        <mxCell id="qO7M0q0AreX4NGmBwgK0-68" style="edgeStyle=orthogonalEdgeStyle;rounded=0;orthogonalLoop=1;jettySize=auto;html=1;exitX=0.5;exitY=1;exitDx=0;exitDy=0;" edge="1" parent="1" source="qO7M0q0AreX4NGmBwgK0-65" target="qO7M0q0AreX4NGmBwgK0-67">
          <mxGeometry relative="1" as="geometry" />
        </mxCell>
        <mxCell id="qO7M0q0AreX4NGmBwgK0-65" value="Возврат данных, полученных при запросе в базу данных" style="rounded=1;whiteSpace=wrap;html=1;" vertex="1" parent="1">
          <mxGeometry x="942" y="320" width="120" height="60" as="geometry" />
        </mxCell>
        <mxCell id="qO7M0q0AreX4NGmBwgK0-67" value="" style="ellipse;html=1;shape=endState;fillColor=#000000;strokeColor=#ff0000;" vertex="1" parent="1">
          <mxGeometry x="987" y="400" width="30" height="30" as="geometry" />
        </mxCell>
        <mxCell id="qO7M0q0AreX4NGmBwgK0-78" value="" style="ellipse;html=1;shape=startState;fillColor=#000000;strokeColor=#ff0000;" vertex="1" parent="1">
          <mxGeometry x="1294" y="80" width="30" height="30" as="geometry" />
        </mxCell>
        <mxCell id="qO7M0q0AreX4NGmBwgK0-79" value="" style="edgeStyle=orthogonalEdgeStyle;html=1;verticalAlign=bottom;endArrow=open;endSize=8;strokeColor=#000000;rounded=0;" edge="1" parent="1" source="qO7M0q0AreX4NGmBwgK0-78">
          <mxGeometry relative="1" as="geometry">
            <mxPoint x="1309" y="150" as="targetPoint" />
          </mxGeometry>
        </mxCell>
        <mxCell id="qO7M0q0AreX4NGmBwgK0-80" style="edgeStyle=orthogonalEdgeStyle;rounded=0;orthogonalLoop=1;jettySize=auto;html=1;exitX=0.5;exitY=1;exitDx=0;exitDy=0;" edge="1" parent="1" source="qO7M0q0AreX4NGmBwgK0-81">
          <mxGeometry relative="1" as="geometry">
            <mxPoint x="1309.0344827586205" y="235" as="targetPoint" />
          </mxGeometry>
        </mxCell>
        <mxCell id="qO7M0q0AreX4NGmBwgK0-81" value="Вход на страницу статьи" style="rounded=1;whiteSpace=wrap;html=1;" vertex="1" parent="1">
          <mxGeometry x="1249" y="150" width="120" height="60" as="geometry" />
        </mxCell>
        <mxCell id="qO7M0q0AreX4NGmBwgK0-101" style="edgeStyle=orthogonalEdgeStyle;rounded=0;orthogonalLoop=1;jettySize=auto;html=1;exitX=0.5;exitY=1;exitDx=0;exitDy=0;" edge="1" parent="1" source="qO7M0q0AreX4NGmBwgK0-87" target="qO7M0q0AreX4NGmBwgK0-88">
          <mxGeometry relative="1" as="geometry" />
        </mxCell>
        <mxCell id="qO7M0q0AreX4NGmBwgK0-87" value="Запрос клиента на информацию о статьи" style="rounded=1;whiteSpace=wrap;html=1;" vertex="1" parent="1">
          <mxGeometry x="1210" y="235" width="198" height="60" as="geometry" />
        </mxCell>
        <mxCell id="qO7M0q0AreX4NGmBwgK0-90" style="edgeStyle=orthogonalEdgeStyle;rounded=0;orthogonalLoop=1;jettySize=auto;html=1;exitX=0;exitY=0.5;exitDx=0;exitDy=0;entryX=0.5;entryY=0;entryDx=0;entryDy=0;" edge="1" parent="1" source="qO7M0q0AreX4NGmBwgK0-88" target="qO7M0q0AreX4NGmBwgK0-89">
          <mxGeometry relative="1" as="geometry" />
        </mxCell>
        <mxCell id="qO7M0q0AreX4NGmBwgK0-92" style="edgeStyle=orthogonalEdgeStyle;rounded=0;orthogonalLoop=1;jettySize=auto;html=1;exitX=1;exitY=0.5;exitDx=0;exitDy=0;entryX=0.5;entryY=0;entryDx=0;entryDy=0;" edge="1" parent="1" source="qO7M0q0AreX4NGmBwgK0-88" target="qO7M0q0AreX4NGmBwgK0-91">
          <mxGeometry relative="1" as="geometry" />
        </mxCell>
        <mxCell id="qO7M0q0AreX4NGmBwgK0-88" value="" style="rhombus;whiteSpace=wrap;html=1;" vertex="1" parent="1">
          <mxGeometry x="1273" y="320" width="72" height="80" as="geometry" />
        </mxCell>
        <mxCell id="qO7M0q0AreX4NGmBwgK0-103" style="edgeStyle=orthogonalEdgeStyle;rounded=0;orthogonalLoop=1;jettySize=auto;html=1;exitX=0.5;exitY=1;exitDx=0;exitDy=0;entryX=0.5;entryY=0;entryDx=0;entryDy=0;" edge="1" parent="1" source="qO7M0q0AreX4NGmBwgK0-89" target="qO7M0q0AreX4NGmBwgK0-102">
          <mxGeometry relative="1" as="geometry">
            <Array as="points">
              <mxPoint x="1184" y="500" />
              <mxPoint x="1309" y="500" />
            </Array>
          </mxGeometry>
        </mxCell>
        <mxCell id="qO7M0q0AreX4NGmBwgK0-89" value="Возврат ошибки: страница не найдена" style="rounded=1;whiteSpace=wrap;html=1;" vertex="1" parent="1">
          <mxGeometry x="1120" y="400" width="129" height="60" as="geometry" />
        </mxCell>
        <mxCell id="qO7M0q0AreX4NGmBwgK0-104" style="edgeStyle=orthogonalEdgeStyle;rounded=0;orthogonalLoop=1;jettySize=auto;html=1;exitX=0.5;exitY=1;exitDx=0;exitDy=0;entryX=0.5;entryY=0;entryDx=0;entryDy=0;" edge="1" parent="1" source="qO7M0q0AreX4NGmBwgK0-91" target="qO7M0q0AreX4NGmBwgK0-102">
          <mxGeometry relative="1" as="geometry">
            <Array as="points">
              <mxPoint x="1434" y="500" />
              <mxPoint x="1309" y="500" />
            </Array>
          </mxGeometry>
        </mxCell>
        <mxCell id="qO7M0q0AreX4NGmBwgK0-91" value="Возврат данных о статье" style="rounded=1;whiteSpace=wrap;html=1;" vertex="1" parent="1">
          <mxGeometry x="1369" y="400" width="129" height="60" as="geometry" />
        </mxCell>
        <mxCell id="qO7M0q0AreX4NGmBwgK0-106" style="edgeStyle=orthogonalEdgeStyle;rounded=0;orthogonalLoop=1;jettySize=auto;html=1;exitX=0.5;exitY=1;exitDx=0;exitDy=0;" edge="1" parent="1" source="qO7M0q0AreX4NGmBwgK0-102" target="qO7M0q0AreX4NGmBwgK0-105">
          <mxGeometry relative="1" as="geometry" />
        </mxCell>
        <mxCell id="qO7M0q0AreX4NGmBwgK0-102" value="" style="rhombus;whiteSpace=wrap;html=1;" vertex="1" parent="1">
          <mxGeometry x="1273" y="520" width="72" height="80" as="geometry" />
        </mxCell>
        <mxCell id="qO7M0q0AreX4NGmBwgK0-105" value="" style="ellipse;html=1;shape=endState;fillColor=#000000;strokeColor=#ff0000;" vertex="1" parent="1">
          <mxGeometry x="1294" y="620" width="30" height="30" as="geometry" />
        </mxCell>
        <mxCell id="qO7M0q0AreX4NGmBwgK0-107" value="" style="ellipse;html=1;shape=startState;fillColor=#000000;strokeColor=#ff0000;" vertex="1" parent="1">
          <mxGeometry x="1694" y="80" width="30" height="30" as="geometry" />
        </mxCell>
        <mxCell id="qO7M0q0AreX4NGmBwgK0-108" value="" style="edgeStyle=orthogonalEdgeStyle;html=1;verticalAlign=bottom;endArrow=open;endSize=8;strokeColor=#000000;rounded=0;" edge="1" parent="1" source="qO7M0q0AreX4NGmBwgK0-107">
          <mxGeometry relative="1" as="geometry">
            <mxPoint x="1709" y="150" as="targetPoint" />
          </mxGeometry>
        </mxCell>
        <mxCell id="qO7M0q0AreX4NGmBwgK0-109" style="edgeStyle=orthogonalEdgeStyle;rounded=0;orthogonalLoop=1;jettySize=auto;html=1;exitX=0.5;exitY=1;exitDx=0;exitDy=0;" edge="1" parent="1" source="qO7M0q0AreX4NGmBwgK0-110" target="qO7M0q0AreX4NGmBwgK0-112">
          <mxGeometry relative="1" as="geometry" />
        </mxCell>
        <mxCell id="qO7M0q0AreX4NGmBwgK0-110" value="Вход на страницу курсов" style="rounded=1;whiteSpace=wrap;html=1;" vertex="1" parent="1">
          <mxGeometry x="1649" y="150" width="120" height="60" as="geometry" />
        </mxCell>
        <mxCell id="qO7M0q0AreX4NGmBwgK0-111" style="edgeStyle=orthogonalEdgeStyle;rounded=0;orthogonalLoop=1;jettySize=auto;html=1;exitX=0.5;exitY=1;exitDx=0;exitDy=0;" edge="1" parent="1" source="qO7M0q0AreX4NGmBwgK0-112" target="qO7M0q0AreX4NGmBwgK0-114">
          <mxGeometry relative="1" as="geometry" />
        </mxCell>
        <mxCell id="qO7M0q0AreX4NGmBwgK0-112" value="Запрос клиента на информацию о курсах с учетом фильтрации" style="rounded=1;whiteSpace=wrap;html=1;" vertex="1" parent="1">
          <mxGeometry x="1610" y="235" width="198" height="60" as="geometry" />
        </mxCell>
        <mxCell id="qO7M0q0AreX4NGmBwgK0-113" style="edgeStyle=orthogonalEdgeStyle;rounded=0;orthogonalLoop=1;jettySize=auto;html=1;exitX=0.5;exitY=1;exitDx=0;exitDy=0;" edge="1" parent="1" source="qO7M0q0AreX4NGmBwgK0-114" target="qO7M0q0AreX4NGmBwgK0-115">
          <mxGeometry relative="1" as="geometry" />
        </mxCell>
        <mxCell id="qO7M0q0AreX4NGmBwgK0-114" value="Возврат данных, полученных при запросе в базу данных" style="rounded=1;whiteSpace=wrap;html=1;" vertex="1" parent="1">
          <mxGeometry x="1649" y="320" width="120" height="60" as="geometry" />
        </mxCell>
        <mxCell id="qO7M0q0AreX4NGmBwgK0-115" value="" style="ellipse;html=1;shape=endState;fillColor=#000000;strokeColor=#ff0000;" vertex="1" parent="1">
          <mxGeometry x="1694" y="400" width="30" height="30" as="geometry" />
        </mxCell>
        <mxCell id="qO7M0q0AreX4NGmBwgK0-116" value="" style="ellipse;html=1;shape=startState;fillColor=#000000;strokeColor=#ff0000;" vertex="1" parent="1">
          <mxGeometry x="2004" y="80" width="30" height="30" as="geometry" />
        </mxCell>
        <mxCell id="qO7M0q0AreX4NGmBwgK0-117" value="" style="edgeStyle=orthogonalEdgeStyle;html=1;verticalAlign=bottom;endArrow=open;endSize=8;strokeColor=#000000;rounded=0;" edge="1" parent="1" source="qO7M0q0AreX4NGmBwgK0-116">
          <mxGeometry relative="1" as="geometry">
            <mxPoint x="2019" y="150" as="targetPoint" />
          </mxGeometry>
        </mxCell>
        <mxCell id="qO7M0q0AreX4NGmBwgK0-118" style="edgeStyle=orthogonalEdgeStyle;rounded=0;orthogonalLoop=1;jettySize=auto;html=1;exitX=0.5;exitY=1;exitDx=0;exitDy=0;" edge="1" parent="1" source="qO7M0q0AreX4NGmBwgK0-119">
          <mxGeometry relative="1" as="geometry">
            <mxPoint x="2019.0344827586205" y="235" as="targetPoint" />
          </mxGeometry>
        </mxCell>
        <mxCell id="qO7M0q0AreX4NGmBwgK0-119" value="Вход на страницу курса" style="rounded=1;whiteSpace=wrap;html=1;" vertex="1" parent="1">
          <mxGeometry x="1959" y="150" width="120" height="60" as="geometry" />
        </mxCell>
        <mxCell id="qO7M0q0AreX4NGmBwgK0-120" style="edgeStyle=orthogonalEdgeStyle;rounded=0;orthogonalLoop=1;jettySize=auto;html=1;exitX=0.5;exitY=1;exitDx=0;exitDy=0;" edge="1" parent="1" source="qO7M0q0AreX4NGmBwgK0-121" target="qO7M0q0AreX4NGmBwgK0-124">
          <mxGeometry relative="1" as="geometry" />
        </mxCell>
        <mxCell id="qO7M0q0AreX4NGmBwgK0-121" value="Запрос клиента на информацию о курсе" style="rounded=1;whiteSpace=wrap;html=1;" vertex="1" parent="1">
          <mxGeometry x="1920" y="235" width="198" height="60" as="geometry" />
        </mxCell>
        <mxCell id="qO7M0q0AreX4NGmBwgK0-122" style="edgeStyle=orthogonalEdgeStyle;rounded=0;orthogonalLoop=1;jettySize=auto;html=1;exitX=0;exitY=0.5;exitDx=0;exitDy=0;entryX=0.5;entryY=0;entryDx=0;entryDy=0;" edge="1" parent="1" source="qO7M0q0AreX4NGmBwgK0-124" target="qO7M0q0AreX4NGmBwgK0-126">
          <mxGeometry relative="1" as="geometry" />
        </mxCell>
        <mxCell id="qO7M0q0AreX4NGmBwgK0-123" style="edgeStyle=orthogonalEdgeStyle;rounded=0;orthogonalLoop=1;jettySize=auto;html=1;exitX=1;exitY=0.5;exitDx=0;exitDy=0;entryX=0.5;entryY=0;entryDx=0;entryDy=0;" edge="1" parent="1" source="qO7M0q0AreX4NGmBwgK0-124" target="qO7M0q0AreX4NGmBwgK0-128">
          <mxGeometry relative="1" as="geometry" />
        </mxCell>
        <mxCell id="qO7M0q0AreX4NGmBwgK0-124" value="" style="rhombus;whiteSpace=wrap;html=1;" vertex="1" parent="1">
          <mxGeometry x="1983" y="320" width="72" height="80" as="geometry" />
        </mxCell>
        <mxCell id="qO7M0q0AreX4NGmBwgK0-125" style="edgeStyle=orthogonalEdgeStyle;rounded=0;orthogonalLoop=1;jettySize=auto;html=1;exitX=0.5;exitY=1;exitDx=0;exitDy=0;entryX=0.5;entryY=0;entryDx=0;entryDy=0;" edge="1" parent="1" source="qO7M0q0AreX4NGmBwgK0-126" target="qO7M0q0AreX4NGmBwgK0-130">
          <mxGeometry relative="1" as="geometry">
            <Array as="points">
              <mxPoint x="1894" y="500" />
              <mxPoint x="2019" y="500" />
            </Array>
          </mxGeometry>
        </mxCell>
        <mxCell id="qO7M0q0AreX4NGmBwgK0-126" value="Возврат ошибки: страница не найдена" style="rounded=1;whiteSpace=wrap;html=1;" vertex="1" parent="1">
          <mxGeometry x="1830" y="400" width="129" height="60" as="geometry" />
        </mxCell>
        <mxCell id="qO7M0q0AreX4NGmBwgK0-127" style="edgeStyle=orthogonalEdgeStyle;rounded=0;orthogonalLoop=1;jettySize=auto;html=1;exitX=0.5;exitY=1;exitDx=0;exitDy=0;entryX=0.5;entryY=0;entryDx=0;entryDy=0;" edge="1" parent="1" source="qO7M0q0AreX4NGmBwgK0-128" target="qO7M0q0AreX4NGmBwgK0-130">
          <mxGeometry relative="1" as="geometry">
            <Array as="points">
              <mxPoint x="2144" y="500" />
              <mxPoint x="2019" y="500" />
            </Array>
          </mxGeometry>
        </mxCell>
        <mxCell id="qO7M0q0AreX4NGmBwgK0-128" value="Возврат данных о курсе" style="rounded=1;whiteSpace=wrap;html=1;" vertex="1" parent="1">
          <mxGeometry x="2079" y="400" width="129" height="60" as="geometry" />
        </mxCell>
        <mxCell id="qO7M0q0AreX4NGmBwgK0-129" style="edgeStyle=orthogonalEdgeStyle;rounded=0;orthogonalLoop=1;jettySize=auto;html=1;exitX=0.5;exitY=1;exitDx=0;exitDy=0;" edge="1" parent="1" source="qO7M0q0AreX4NGmBwgK0-130" target="qO7M0q0AreX4NGmBwgK0-131">
          <mxGeometry relative="1" as="geometry" />
        </mxCell>
        <mxCell id="qO7M0q0AreX4NGmBwgK0-130" value="" style="rhombus;whiteSpace=wrap;html=1;" vertex="1" parent="1">
          <mxGeometry x="1983" y="520" width="72" height="80" as="geometry" />
        </mxCell>
        <mxCell id="qO7M0q0AreX4NGmBwgK0-131" value="" style="ellipse;html=1;shape=endState;fillColor=#000000;strokeColor=#ff0000;" vertex="1" parent="1">
          <mxGeometry x="2004" y="620" width="30" height="30" as="geometry" />
        </mxCell>
        <mxCell id="qO7M0q0AreX4NGmBwgK0-132" value="" style="ellipse;html=1;shape=startState;fillColor=#000000;strokeColor=#ff0000;" vertex="1" parent="1">
          <mxGeometry x="-285" y="80" width="30" height="30" as="geometry" />
        </mxCell>
        <mxCell id="qO7M0q0AreX4NGmBwgK0-133" value="" style="edgeStyle=orthogonalEdgeStyle;html=1;verticalAlign=bottom;endArrow=open;endSize=8;strokeColor=#000000;rounded=0;" edge="1" parent="1" source="qO7M0q0AreX4NGmBwgK0-132">
          <mxGeometry relative="1" as="geometry">
            <mxPoint x="-270" y="150" as="targetPoint" />
          </mxGeometry>
        </mxCell>
        <mxCell id="qO7M0q0AreX4NGmBwgK0-136" style="edgeStyle=orthogonalEdgeStyle;rounded=0;orthogonalLoop=1;jettySize=auto;html=1;exitX=0.5;exitY=1;exitDx=0;exitDy=0;" edge="1" parent="1" source="qO7M0q0AreX4NGmBwgK0-134" target="qO7M0q0AreX4NGmBwgK0-135">
          <mxGeometry relative="1" as="geometry" />
        </mxCell>
        <mxCell id="qO7M0q0AreX4NGmBwgK0-134" value="Вход на сайт" style="rounded=1;whiteSpace=wrap;html=1;" vertex="1" parent="1">
          <mxGeometry x="-330" y="150" width="120" height="60" as="geometry" />
        </mxCell>
        <mxCell id="qO7M0q0AreX4NGmBwgK0-138" style="edgeStyle=orthogonalEdgeStyle;rounded=0;orthogonalLoop=1;jettySize=auto;html=1;exitX=0.5;exitY=1;exitDx=0;exitDy=0;" edge="1" parent="1" source="qO7M0q0AreX4NGmBwgK0-135" target="qO7M0q0AreX4NGmBwgK0-137">
          <mxGeometry relative="1" as="geometry" />
        </mxCell>
        <mxCell id="qO7M0q0AreX4NGmBwgK0-135" value="Возврат является ли текущий клиент авторизованным" style="rounded=1;whiteSpace=wrap;html=1;" vertex="1" parent="1">
          <mxGeometry x="-330" y="240" width="120" height="60" as="geometry" />
        </mxCell>
        <mxCell id="qO7M0q0AreX4NGmBwgK0-137" value="" style="ellipse;html=1;shape=endState;fillColor=#000000;strokeColor=#ff0000;" vertex="1" parent="1">
          <mxGeometry x="-285" y="320" width="30" height="30" as="geometry" />
        </mxCell>
        <mxCell id="qO7M0q0AreX4NGmBwgK0-139" value="" style="ellipse;html=1;shape=startState;fillColor=#000000;strokeColor=#ff0000;" vertex="1" parent="1">
          <mxGeometry x="2324" y="80" width="30" height="30" as="geometry" />
        </mxCell>
        <mxCell id="qO7M0q0AreX4NGmBwgK0-140" value="" style="edgeStyle=orthogonalEdgeStyle;html=1;verticalAlign=bottom;endArrow=open;endSize=8;strokeColor=#000000;rounded=0;" edge="1" parent="1" source="qO7M0q0AreX4NGmBwgK0-139">
          <mxGeometry relative="1" as="geometry">
            <mxPoint x="2339" y="150" as="targetPoint" />
          </mxGeometry>
        </mxCell>
        <mxCell id="qO7M0q0AreX4NGmBwgK0-141" style="edgeStyle=orthogonalEdgeStyle;rounded=0;orthogonalLoop=1;jettySize=auto;html=1;exitX=0.5;exitY=1;exitDx=0;exitDy=0;" edge="1" parent="1" source="qO7M0q0AreX4NGmBwgK0-142" target="qO7M0q0AreX4NGmBwgK0-144">
          <mxGeometry relative="1" as="geometry" />
        </mxCell>
        <mxCell id="qO7M0q0AreX4NGmBwgK0-142" value="Вход на страницу задач" style="rounded=1;whiteSpace=wrap;html=1;" vertex="1" parent="1">
          <mxGeometry x="2279" y="150" width="120" height="60" as="geometry" />
        </mxCell>
        <mxCell id="qO7M0q0AreX4NGmBwgK0-143" style="edgeStyle=orthogonalEdgeStyle;rounded=0;orthogonalLoop=1;jettySize=auto;html=1;exitX=0.5;exitY=1;exitDx=0;exitDy=0;" edge="1" parent="1" source="qO7M0q0AreX4NGmBwgK0-144" target="qO7M0q0AreX4NGmBwgK0-146">
          <mxGeometry relative="1" as="geometry" />
        </mxCell>
        <mxCell id="qO7M0q0AreX4NGmBwgK0-144" value="Запрос клиента на информацию о задачах учетом фильтрации" style="rounded=1;whiteSpace=wrap;html=1;" vertex="1" parent="1">
          <mxGeometry x="2240" y="235" width="198" height="60" as="geometry" />
        </mxCell>
        <mxCell id="qO7M0q0AreX4NGmBwgK0-145" style="edgeStyle=orthogonalEdgeStyle;rounded=0;orthogonalLoop=1;jettySize=auto;html=1;exitX=0.5;exitY=1;exitDx=0;exitDy=0;" edge="1" parent="1" source="qO7M0q0AreX4NGmBwgK0-146" target="qO7M0q0AreX4NGmBwgK0-147">
          <mxGeometry relative="1" as="geometry" />
        </mxCell>
        <mxCell id="qO7M0q0AreX4NGmBwgK0-146" value="Возврат данных, полученных при запросе в базу данных" style="rounded=1;whiteSpace=wrap;html=1;" vertex="1" parent="1">
          <mxGeometry x="2279" y="320" width="120" height="60" as="geometry" />
        </mxCell>
        <mxCell id="qO7M0q0AreX4NGmBwgK0-147" value="" style="ellipse;html=1;shape=endState;fillColor=#000000;strokeColor=#ff0000;" vertex="1" parent="1">
          <mxGeometry x="2324" y="400" width="30" height="30" as="geometry" />
        </mxCell>
        <mxCell id="qO7M0q0AreX4NGmBwgK0-148" value="" style="ellipse;html=1;shape=startState;fillColor=#000000;strokeColor=#ff0000;" vertex="1" parent="1">
          <mxGeometry x="2634" y="80" width="30" height="30" as="geometry" />
        </mxCell>
        <mxCell id="qO7M0q0AreX4NGmBwgK0-149" value="" style="edgeStyle=orthogonalEdgeStyle;html=1;verticalAlign=bottom;endArrow=open;endSize=8;strokeColor=#000000;rounded=0;" edge="1" parent="1" source="qO7M0q0AreX4NGmBwgK0-148">
          <mxGeometry relative="1" as="geometry">
            <mxPoint x="2649" y="150" as="targetPoint" />
          </mxGeometry>
        </mxCell>
        <mxCell id="qO7M0q0AreX4NGmBwgK0-150" style="edgeStyle=orthogonalEdgeStyle;rounded=0;orthogonalLoop=1;jettySize=auto;html=1;exitX=0.5;exitY=1;exitDx=0;exitDy=0;" edge="1" parent="1" source="qO7M0q0AreX4NGmBwgK0-151">
          <mxGeometry relative="1" as="geometry">
            <mxPoint x="2649.0344827586205" y="235" as="targetPoint" />
          </mxGeometry>
        </mxCell>
        <mxCell id="qO7M0q0AreX4NGmBwgK0-151" value="Вход на страницу задачи" style="rounded=1;whiteSpace=wrap;html=1;" vertex="1" parent="1">
          <mxGeometry x="2589" y="150" width="120" height="60" as="geometry" />
        </mxCell>
        <mxCell id="qO7M0q0AreX4NGmBwgK0-152" style="edgeStyle=orthogonalEdgeStyle;rounded=0;orthogonalLoop=1;jettySize=auto;html=1;exitX=0.5;exitY=1;exitDx=0;exitDy=0;" edge="1" parent="1" source="qO7M0q0AreX4NGmBwgK0-153" target="qO7M0q0AreX4NGmBwgK0-156">
          <mxGeometry relative="1" as="geometry" />
        </mxCell>
        <mxCell id="qO7M0q0AreX4NGmBwgK0-153" value="Запрос клиента на информацию о задаче" style="rounded=1;whiteSpace=wrap;html=1;" vertex="1" parent="1">
          <mxGeometry x="2550" y="235" width="198" height="60" as="geometry" />
        </mxCell>
        <mxCell id="qO7M0q0AreX4NGmBwgK0-154" style="edgeStyle=orthogonalEdgeStyle;rounded=0;orthogonalLoop=1;jettySize=auto;html=1;exitX=0;exitY=0.5;exitDx=0;exitDy=0;entryX=0.5;entryY=0;entryDx=0;entryDy=0;" edge="1" parent="1" source="qO7M0q0AreX4NGmBwgK0-156" target="qO7M0q0AreX4NGmBwgK0-158">
          <mxGeometry relative="1" as="geometry" />
        </mxCell>
        <mxCell id="qO7M0q0AreX4NGmBwgK0-155" style="edgeStyle=orthogonalEdgeStyle;rounded=0;orthogonalLoop=1;jettySize=auto;html=1;exitX=1;exitY=0.5;exitDx=0;exitDy=0;entryX=0.5;entryY=0;entryDx=0;entryDy=0;" edge="1" parent="1" source="qO7M0q0AreX4NGmBwgK0-156" target="qO7M0q0AreX4NGmBwgK0-160">
          <mxGeometry relative="1" as="geometry" />
        </mxCell>
        <mxCell id="qO7M0q0AreX4NGmBwgK0-156" value="" style="rhombus;whiteSpace=wrap;html=1;" vertex="1" parent="1">
          <mxGeometry x="2613" y="320" width="72" height="80" as="geometry" />
        </mxCell>
        <mxCell id="qO7M0q0AreX4NGmBwgK0-157" style="edgeStyle=orthogonalEdgeStyle;rounded=0;orthogonalLoop=1;jettySize=auto;html=1;exitX=0.5;exitY=1;exitDx=0;exitDy=0;entryX=0.5;entryY=0;entryDx=0;entryDy=0;" edge="1" parent="1" source="qO7M0q0AreX4NGmBwgK0-158" target="qO7M0q0AreX4NGmBwgK0-162">
          <mxGeometry relative="1" as="geometry">
            <Array as="points">
              <mxPoint x="2524" y="500" />
              <mxPoint x="2649" y="500" />
            </Array>
          </mxGeometry>
        </mxCell>
        <mxCell id="qO7M0q0AreX4NGmBwgK0-158" value="Возврат ошибки: страница не найдена" style="rounded=1;whiteSpace=wrap;html=1;" vertex="1" parent="1">
          <mxGeometry x="2460" y="400" width="129" height="60" as="geometry" />
        </mxCell>
        <mxCell id="qO7M0q0AreX4NGmBwgK0-159" style="edgeStyle=orthogonalEdgeStyle;rounded=0;orthogonalLoop=1;jettySize=auto;html=1;exitX=0.5;exitY=1;exitDx=0;exitDy=0;entryX=0.5;entryY=0;entryDx=0;entryDy=0;" edge="1" parent="1" source="qO7M0q0AreX4NGmBwgK0-160" target="qO7M0q0AreX4NGmBwgK0-162">
          <mxGeometry relative="1" as="geometry">
            <Array as="points">
              <mxPoint x="2774" y="500" />
              <mxPoint x="2649" y="500" />
            </Array>
          </mxGeometry>
        </mxCell>
        <mxCell id="qO7M0q0AreX4NGmBwgK0-160" value="Возврат данных о задаче" style="rounded=1;whiteSpace=wrap;html=1;" vertex="1" parent="1">
          <mxGeometry x="2709" y="400" width="129" height="60" as="geometry" />
        </mxCell>
        <mxCell id="qO7M0q0AreX4NGmBwgK0-161" style="edgeStyle=orthogonalEdgeStyle;rounded=0;orthogonalLoop=1;jettySize=auto;html=1;exitX=0.5;exitY=1;exitDx=0;exitDy=0;" edge="1" parent="1" source="qO7M0q0AreX4NGmBwgK0-162" target="qO7M0q0AreX4NGmBwgK0-163">
          <mxGeometry relative="1" as="geometry" />
        </mxCell>
        <mxCell id="qO7M0q0AreX4NGmBwgK0-162" value="" style="rhombus;whiteSpace=wrap;html=1;" vertex="1" parent="1">
          <mxGeometry x="2613" y="520" width="72" height="80" as="geometry" />
        </mxCell>
        <mxCell id="qO7M0q0AreX4NGmBwgK0-163" value="" style="ellipse;html=1;shape=endState;fillColor=#000000;strokeColor=#ff0000;" vertex="1" parent="1">
          <mxGeometry x="2634" y="620" width="30" height="30" as="geometry" />
        </mxCell>
        <mxCell id="qO7M0q0AreX4NGmBwgK0-164" value="[Не найдено данных]" style="text;html=1;strokeColor=none;fillColor=none;align=center;verticalAlign=middle;whiteSpace=wrap;rounded=0;" vertex="1" parent="1">
          <mxGeometry x="1150" y="330" width="123" height="30" as="geometry" />
        </mxCell>
        <mxCell id="qO7M0q0AreX4NGmBwgK0-165" value="[Данные найдены]" style="text;html=1;strokeColor=none;fillColor=none;align=center;verticalAlign=middle;whiteSpace=wrap;rounded=0;" vertex="1" parent="1">
          <mxGeometry x="1345" y="330" width="123" height="30" as="geometry" />
        </mxCell>
        <mxCell id="qO7M0q0AreX4NGmBwgK0-166" value="[Не найдено данных]" style="text;html=1;strokeColor=none;fillColor=none;align=center;verticalAlign=middle;whiteSpace=wrap;rounded=0;" vertex="1" parent="1">
          <mxGeometry x="1860" y="335" width="123" height="30" as="geometry" />
        </mxCell>
        <mxCell id="qO7M0q0AreX4NGmBwgK0-167" value="[Данные найдены]" style="text;html=1;strokeColor=none;fillColor=none;align=center;verticalAlign=middle;whiteSpace=wrap;rounded=0;" vertex="1" parent="1">
          <mxGeometry x="2055" y="335" width="123" height="30" as="geometry" />
        </mxCell>
        <mxCell id="qO7M0q0AreX4NGmBwgK0-168" value="[Не найдено данных]" style="text;html=1;strokeColor=none;fillColor=none;align=center;verticalAlign=middle;whiteSpace=wrap;rounded=0;" vertex="1" parent="1">
          <mxGeometry x="2490" y="335" width="123" height="30" as="geometry" />
        </mxCell>
        <mxCell id="qO7M0q0AreX4NGmBwgK0-169" value="[Данные найдены]" style="text;html=1;strokeColor=none;fillColor=none;align=center;verticalAlign=middle;whiteSpace=wrap;rounded=0;" vertex="1" parent="1">
          <mxGeometry x="2685" y="335" width="123" height="30" as="geometry" />
        </mxCell>
        <mxCell id="qO7M0q0AreX4NGmBwgK0-170" value="" style="ellipse;html=1;shape=startState;fillColor=#000000;strokeColor=#ff0000;" vertex="1" parent="1">
          <mxGeometry x="3694" y="80" width="30" height="30" as="geometry" />
        </mxCell>
        <mxCell id="qO7M0q0AreX4NGmBwgK0-171" value="" style="edgeStyle=orthogonalEdgeStyle;html=1;verticalAlign=bottom;endArrow=open;endSize=8;strokeColor=#000000;rounded=0;" edge="1" parent="1" source="qO7M0q0AreX4NGmBwgK0-170">
          <mxGeometry relative="1" as="geometry">
            <mxPoint x="3709" y="150" as="targetPoint" />
          </mxGeometry>
        </mxCell>
        <mxCell id="qO7M0q0AreX4NGmBwgK0-172" style="edgeStyle=orthogonalEdgeStyle;rounded=0;orthogonalLoop=1;jettySize=auto;html=1;exitX=0.5;exitY=1;exitDx=0;exitDy=0;" edge="1" parent="1" source="qO7M0q0AreX4NGmBwgK0-173" target="qO7M0q0AreX4NGmBwgK0-175">
          <mxGeometry relative="1" as="geometry" />
        </mxCell>
        <mxCell id="qO7M0q0AreX4NGmBwgK0-173" value="Вход на страницу проекта" style="rounded=1;whiteSpace=wrap;html=1;" vertex="1" parent="1">
          <mxGeometry x="3649" y="150" width="120" height="60" as="geometry" />
        </mxCell>
        <mxCell id="qO7M0q0AreX4NGmBwgK0-193" style="edgeStyle=orthogonalEdgeStyle;rounded=0;orthogonalLoop=1;jettySize=auto;html=1;exitX=0.5;exitY=1;exitDx=0;exitDy=0;" edge="1" parent="1" source="qO7M0q0AreX4NGmBwgK0-175" target="qO7M0q0AreX4NGmBwgK0-184">
          <mxGeometry relative="1" as="geometry" />
        </mxCell>
        <mxCell id="qO7M0q0AreX4NGmBwgK0-175" value="Запрос клиента на информацию о проекте" style="rounded=1;whiteSpace=wrap;html=1;" vertex="1" parent="1">
          <mxGeometry x="3610" y="235" width="198" height="60" as="geometry" />
        </mxCell>
        <mxCell id="qO7M0q0AreX4NGmBwgK0-182" style="edgeStyle=orthogonalEdgeStyle;rounded=0;orthogonalLoop=1;jettySize=auto;html=1;exitX=0;exitY=0.5;exitDx=0;exitDy=0;entryX=0.5;entryY=0;entryDx=0;entryDy=0;" edge="1" parent="1" source="qO7M0q0AreX4NGmBwgK0-184" target="qO7M0q0AreX4NGmBwgK0-186">
          <mxGeometry relative="1" as="geometry" />
        </mxCell>
        <mxCell id="qO7M0q0AreX4NGmBwgK0-183" style="edgeStyle=orthogonalEdgeStyle;rounded=0;orthogonalLoop=1;jettySize=auto;html=1;exitX=1;exitY=0.5;exitDx=0;exitDy=0;entryX=0.5;entryY=0;entryDx=0;entryDy=0;" edge="1" parent="1" source="qO7M0q0AreX4NGmBwgK0-184" target="qO7M0q0AreX4NGmBwgK0-188">
          <mxGeometry relative="1" as="geometry" />
        </mxCell>
        <mxCell id="qO7M0q0AreX4NGmBwgK0-184" value="" style="rhombus;whiteSpace=wrap;html=1;" vertex="1" parent="1">
          <mxGeometry x="3673" y="360" width="72" height="80" as="geometry" />
        </mxCell>
        <mxCell id="qO7M0q0AreX4NGmBwgK0-185" style="edgeStyle=orthogonalEdgeStyle;rounded=0;orthogonalLoop=1;jettySize=auto;html=1;exitX=0.5;exitY=1;exitDx=0;exitDy=0;entryX=0.5;entryY=0;entryDx=0;entryDy=0;" edge="1" parent="1" source="qO7M0q0AreX4NGmBwgK0-186" target="qO7M0q0AreX4NGmBwgK0-190">
          <mxGeometry relative="1" as="geometry">
            <Array as="points">
              <mxPoint x="3584" y="540" />
              <mxPoint x="3709" y="540" />
            </Array>
          </mxGeometry>
        </mxCell>
        <mxCell id="qO7M0q0AreX4NGmBwgK0-186" value="Возврат ошибки: страница не найдена" style="rounded=1;whiteSpace=wrap;html=1;" vertex="1" parent="1">
          <mxGeometry x="3520" y="440" width="129" height="60" as="geometry" />
        </mxCell>
        <mxCell id="qO7M0q0AreX4NGmBwgK0-187" style="edgeStyle=orthogonalEdgeStyle;rounded=0;orthogonalLoop=1;jettySize=auto;html=1;exitX=0.5;exitY=1;exitDx=0;exitDy=0;entryX=0.5;entryY=0;entryDx=0;entryDy=0;" edge="1" parent="1" source="qO7M0q0AreX4NGmBwgK0-188" target="qO7M0q0AreX4NGmBwgK0-190">
          <mxGeometry relative="1" as="geometry">
            <Array as="points">
              <mxPoint x="3834" y="540" />
              <mxPoint x="3709" y="540" />
            </Array>
          </mxGeometry>
        </mxCell>
        <mxCell id="qO7M0q0AreX4NGmBwgK0-188" value="Возврат данных о проекте" style="rounded=1;whiteSpace=wrap;html=1;" vertex="1" parent="1">
          <mxGeometry x="3769" y="440" width="129" height="60" as="geometry" />
        </mxCell>
        <mxCell id="qO7M0q0AreX4NGmBwgK0-189" style="edgeStyle=orthogonalEdgeStyle;rounded=0;orthogonalLoop=1;jettySize=auto;html=1;exitX=0.5;exitY=1;exitDx=0;exitDy=0;" edge="1" parent="1" source="qO7M0q0AreX4NGmBwgK0-190">
          <mxGeometry relative="1" as="geometry">
            <mxPoint x="3709" y="660" as="targetPoint" />
          </mxGeometry>
        </mxCell>
        <mxCell id="qO7M0q0AreX4NGmBwgK0-190" value="" style="rhombus;whiteSpace=wrap;html=1;" vertex="1" parent="1">
          <mxGeometry x="3673" y="560" width="72" height="80" as="geometry" />
        </mxCell>
        <mxCell id="qO7M0q0AreX4NGmBwgK0-191" value="[Проект не найден или проект иного пользователя приватный ]" style="text;html=1;strokeColor=none;fillColor=none;align=center;verticalAlign=middle;whiteSpace=wrap;rounded=0;" vertex="1" parent="1">
          <mxGeometry x="3520" y="350" width="163" height="50" as="geometry" />
        </mxCell>
        <mxCell id="qO7M0q0AreX4NGmBwgK0-192" value="[Собственный проект найден или проект иного пользователя публичный]" style="text;html=1;strokeColor=none;fillColor=none;align=center;verticalAlign=middle;whiteSpace=wrap;rounded=0;" vertex="1" parent="1">
          <mxGeometry x="3745" y="347.5" width="195" height="52.5" as="geometry" />
        </mxCell>
        <mxCell id="qO7M0q0AreX4NGmBwgK0-194" value="" style="ellipse;html=1;shape=endState;fillColor=#000000;strokeColor=#ff0000;" vertex="1" parent="1">
          <mxGeometry x="3694" y="660" width="30" height="30" as="geometry" />
        </mxCell>
        <mxCell id="qO7M0q0AreX4NGmBwgK0-195" value="" style="ellipse;html=1;shape=startState;fillColor=#000000;strokeColor=#ff0000;" vertex="1" parent="1">
          <mxGeometry x="2954" y="80" width="30" height="30" as="geometry" />
        </mxCell>
        <mxCell id="qO7M0q0AreX4NGmBwgK0-196" value="" style="edgeStyle=orthogonalEdgeStyle;html=1;verticalAlign=bottom;endArrow=open;endSize=8;strokeColor=#000000;rounded=0;" edge="1" parent="1" source="qO7M0q0AreX4NGmBwgK0-195">
          <mxGeometry relative="1" as="geometry">
            <mxPoint x="2969" y="150" as="targetPoint" />
          </mxGeometry>
        </mxCell>
        <mxCell id="qO7M0q0AreX4NGmBwgK0-197" style="edgeStyle=orthogonalEdgeStyle;rounded=0;orthogonalLoop=1;jettySize=auto;html=1;exitX=0.5;exitY=1;exitDx=0;exitDy=0;" edge="1" parent="1" source="qO7M0q0AreX4NGmBwgK0-198" target="qO7M0q0AreX4NGmBwgK0-200">
          <mxGeometry relative="1" as="geometry" />
        </mxCell>
        <mxCell id="qO7M0q0AreX4NGmBwgK0-198" value="Вход на страницу форума" style="rounded=1;whiteSpace=wrap;html=1;" vertex="1" parent="1">
          <mxGeometry x="2909" y="150" width="120" height="60" as="geometry" />
        </mxCell>
        <mxCell id="qO7M0q0AreX4NGmBwgK0-199" style="edgeStyle=orthogonalEdgeStyle;rounded=0;orthogonalLoop=1;jettySize=auto;html=1;exitX=0.5;exitY=1;exitDx=0;exitDy=0;" edge="1" parent="1" source="qO7M0q0AreX4NGmBwgK0-200" target="qO7M0q0AreX4NGmBwgK0-202">
          <mxGeometry relative="1" as="geometry" />
        </mxCell>
        <mxCell id="qO7M0q0AreX4NGmBwgK0-200" value="Запрос клиента на информацию о вопросах с учетом фильтрации" style="rounded=1;whiteSpace=wrap;html=1;" vertex="1" parent="1">
          <mxGeometry x="2870" y="235" width="198" height="60" as="geometry" />
        </mxCell>
        <mxCell id="qO7M0q0AreX4NGmBwgK0-201" style="edgeStyle=orthogonalEdgeStyle;rounded=0;orthogonalLoop=1;jettySize=auto;html=1;exitX=0.5;exitY=1;exitDx=0;exitDy=0;" edge="1" parent="1" source="qO7M0q0AreX4NGmBwgK0-202" target="qO7M0q0AreX4NGmBwgK0-203">
          <mxGeometry relative="1" as="geometry" />
        </mxCell>
        <mxCell id="qO7M0q0AreX4NGmBwgK0-202" value="Возврат данных, полученных при запросе в базу данных" style="rounded=1;whiteSpace=wrap;html=1;" vertex="1" parent="1">
          <mxGeometry x="2909" y="320" width="120" height="60" as="geometry" />
        </mxCell>
        <mxCell id="qO7M0q0AreX4NGmBwgK0-203" value="" style="ellipse;html=1;shape=endState;fillColor=#000000;strokeColor=#ff0000;" vertex="1" parent="1">
          <mxGeometry x="2954" y="400" width="30" height="30" as="geometry" />
        </mxCell>
        <mxCell id="qO7M0q0AreX4NGmBwgK0-204" value="" style="ellipse;html=1;shape=startState;fillColor=#000000;strokeColor=#ff0000;" vertex="1" parent="1">
          <mxGeometry x="3264" y="80" width="30" height="30" as="geometry" />
        </mxCell>
        <mxCell id="qO7M0q0AreX4NGmBwgK0-205" value="" style="edgeStyle=orthogonalEdgeStyle;html=1;verticalAlign=bottom;endArrow=open;endSize=8;strokeColor=#000000;rounded=0;" edge="1" parent="1" source="qO7M0q0AreX4NGmBwgK0-204">
          <mxGeometry relative="1" as="geometry">
            <mxPoint x="3279" y="150" as="targetPoint" />
          </mxGeometry>
        </mxCell>
        <mxCell id="qO7M0q0AreX4NGmBwgK0-206" style="edgeStyle=orthogonalEdgeStyle;rounded=0;orthogonalLoop=1;jettySize=auto;html=1;exitX=0.5;exitY=1;exitDx=0;exitDy=0;" edge="1" parent="1" source="qO7M0q0AreX4NGmBwgK0-207">
          <mxGeometry relative="1" as="geometry">
            <mxPoint x="3279.0344827586205" y="235" as="targetPoint" />
          </mxGeometry>
        </mxCell>
        <mxCell id="qO7M0q0AreX4NGmBwgK0-207" value="Вход на страницу вопроса" style="rounded=1;whiteSpace=wrap;html=1;" vertex="1" parent="1">
          <mxGeometry x="3219" y="150" width="120" height="60" as="geometry" />
        </mxCell>
        <mxCell id="qO7M0q0AreX4NGmBwgK0-208" style="edgeStyle=orthogonalEdgeStyle;rounded=0;orthogonalLoop=1;jettySize=auto;html=1;exitX=0.5;exitY=1;exitDx=0;exitDy=0;" edge="1" parent="1" source="qO7M0q0AreX4NGmBwgK0-209" target="qO7M0q0AreX4NGmBwgK0-212">
          <mxGeometry relative="1" as="geometry" />
        </mxCell>
        <mxCell id="qO7M0q0AreX4NGmBwgK0-209" value="Запрос клиента на информацию о вопросе" style="rounded=1;whiteSpace=wrap;html=1;" vertex="1" parent="1">
          <mxGeometry x="3180" y="235" width="198" height="60" as="geometry" />
        </mxCell>
        <mxCell id="qO7M0q0AreX4NGmBwgK0-210" style="edgeStyle=orthogonalEdgeStyle;rounded=0;orthogonalLoop=1;jettySize=auto;html=1;exitX=0;exitY=0.5;exitDx=0;exitDy=0;entryX=0.5;entryY=0;entryDx=0;entryDy=0;" edge="1" parent="1" source="qO7M0q0AreX4NGmBwgK0-212" target="qO7M0q0AreX4NGmBwgK0-214">
          <mxGeometry relative="1" as="geometry" />
        </mxCell>
        <mxCell id="qO7M0q0AreX4NGmBwgK0-211" style="edgeStyle=orthogonalEdgeStyle;rounded=0;orthogonalLoop=1;jettySize=auto;html=1;exitX=1;exitY=0.5;exitDx=0;exitDy=0;entryX=0.5;entryY=0;entryDx=0;entryDy=0;" edge="1" parent="1" source="qO7M0q0AreX4NGmBwgK0-212" target="qO7M0q0AreX4NGmBwgK0-216">
          <mxGeometry relative="1" as="geometry" />
        </mxCell>
        <mxCell id="qO7M0q0AreX4NGmBwgK0-212" value="" style="rhombus;whiteSpace=wrap;html=1;" vertex="1" parent="1">
          <mxGeometry x="3243" y="320" width="72" height="80" as="geometry" />
        </mxCell>
        <mxCell id="qO7M0q0AreX4NGmBwgK0-213" style="edgeStyle=orthogonalEdgeStyle;rounded=0;orthogonalLoop=1;jettySize=auto;html=1;exitX=0.5;exitY=1;exitDx=0;exitDy=0;entryX=0.5;entryY=0;entryDx=0;entryDy=0;" edge="1" parent="1" source="qO7M0q0AreX4NGmBwgK0-214" target="qO7M0q0AreX4NGmBwgK0-218">
          <mxGeometry relative="1" as="geometry">
            <Array as="points">
              <mxPoint x="3154" y="500" />
              <mxPoint x="3279" y="500" />
            </Array>
          </mxGeometry>
        </mxCell>
        <mxCell id="qO7M0q0AreX4NGmBwgK0-214" value="Возврат ошибки: страница не найдена" style="rounded=1;whiteSpace=wrap;html=1;" vertex="1" parent="1">
          <mxGeometry x="3090" y="400" width="129" height="60" as="geometry" />
        </mxCell>
        <mxCell id="qO7M0q0AreX4NGmBwgK0-215" style="edgeStyle=orthogonalEdgeStyle;rounded=0;orthogonalLoop=1;jettySize=auto;html=1;exitX=0.5;exitY=1;exitDx=0;exitDy=0;entryX=0.5;entryY=0;entryDx=0;entryDy=0;" edge="1" parent="1" source="qO7M0q0AreX4NGmBwgK0-216" target="qO7M0q0AreX4NGmBwgK0-218">
          <mxGeometry relative="1" as="geometry">
            <Array as="points">
              <mxPoint x="3404" y="500" />
              <mxPoint x="3279" y="500" />
            </Array>
          </mxGeometry>
        </mxCell>
        <mxCell id="qO7M0q0AreX4NGmBwgK0-216" value="Возврат данных о вопросе" style="rounded=1;whiteSpace=wrap;html=1;" vertex="1" parent="1">
          <mxGeometry x="3339" y="400" width="129" height="60" as="geometry" />
        </mxCell>
        <mxCell id="qO7M0q0AreX4NGmBwgK0-217" style="edgeStyle=orthogonalEdgeStyle;rounded=0;orthogonalLoop=1;jettySize=auto;html=1;exitX=0.5;exitY=1;exitDx=0;exitDy=0;" edge="1" parent="1" source="qO7M0q0AreX4NGmBwgK0-218" target="qO7M0q0AreX4NGmBwgK0-219">
          <mxGeometry relative="1" as="geometry" />
        </mxCell>
        <mxCell id="qO7M0q0AreX4NGmBwgK0-218" value="" style="rhombus;whiteSpace=wrap;html=1;" vertex="1" parent="1">
          <mxGeometry x="3243" y="520" width="72" height="80" as="geometry" />
        </mxCell>
        <mxCell id="qO7M0q0AreX4NGmBwgK0-219" value="" style="ellipse;html=1;shape=endState;fillColor=#000000;strokeColor=#ff0000;" vertex="1" parent="1">
          <mxGeometry x="3264" y="620" width="30" height="30" as="geometry" />
        </mxCell>
        <mxCell id="qO7M0q0AreX4NGmBwgK0-220" value="[Не найдено данных]" style="text;html=1;strokeColor=none;fillColor=none;align=center;verticalAlign=middle;whiteSpace=wrap;rounded=0;" vertex="1" parent="1">
          <mxGeometry x="3120" y="335" width="123" height="30" as="geometry" />
        </mxCell>
        <mxCell id="qO7M0q0AreX4NGmBwgK0-221" value="[Данные найдены]" style="text;html=1;strokeColor=none;fillColor=none;align=center;verticalAlign=middle;whiteSpace=wrap;rounded=0;" vertex="1" parent="1">
          <mxGeometry x="3315" y="335" width="123" height="30" as="geometry" />
        </mxCell>
        <mxCell id="qO7M0q0AreX4NGmBwgK0-222" value="" style="ellipse;html=1;shape=startState;fillColor=#000000;strokeColor=#ff0000;" vertex="1" parent="1">
          <mxGeometry x="4205" y="80" width="30" height="30" as="geometry" />
        </mxCell>
        <mxCell id="qO7M0q0AreX4NGmBwgK0-223" value="" style="edgeStyle=orthogonalEdgeStyle;html=1;verticalAlign=bottom;endArrow=open;endSize=8;strokeColor=#000000;rounded=0;" edge="1" parent="1" source="qO7M0q0AreX4NGmBwgK0-222">
          <mxGeometry relative="1" as="geometry">
            <mxPoint x="4220" y="150" as="targetPoint" />
          </mxGeometry>
        </mxCell>
        <mxCell id="qO7M0q0AreX4NGmBwgK0-269" style="edgeStyle=orthogonalEdgeStyle;rounded=0;orthogonalLoop=1;jettySize=auto;html=1;exitX=0.5;exitY=1;exitDx=0;exitDy=0;" edge="1" parent="1" source="qO7M0q0AreX4NGmBwgK0-225" target="qO7M0q0AreX4NGmBwgK0-260">
          <mxGeometry relative="1" as="geometry" />
        </mxCell>
        <mxCell id="qO7M0q0AreX4NGmBwgK0-225" value="Вход на страницу онлайн редактора проекта" style="rounded=1;whiteSpace=wrap;html=1;" vertex="1" parent="1">
          <mxGeometry x="4160" y="150" width="120" height="60" as="geometry" />
        </mxCell>
        <mxCell id="qO7M0q0AreX4NGmBwgK0-234" style="edgeStyle=orthogonalEdgeStyle;rounded=0;orthogonalLoop=1;jettySize=auto;html=1;exitX=0;exitY=0.5;exitDx=0;exitDy=0;entryX=0.5;entryY=0;entryDx=0;entryDy=0;" edge="1" parent="1" source="qO7M0q0AreX4NGmBwgK0-227" target="qO7M0q0AreX4NGmBwgK0-230">
          <mxGeometry relative="1" as="geometry" />
        </mxCell>
        <mxCell id="qO7M0q0AreX4NGmBwgK0-240" style="edgeStyle=orthogonalEdgeStyle;rounded=0;orthogonalLoop=1;jettySize=auto;html=1;exitX=1;exitY=0.5;exitDx=0;exitDy=0;entryX=0.5;entryY=0;entryDx=0;entryDy=0;" edge="1" parent="1" source="qO7M0q0AreX4NGmBwgK0-227" target="qO7M0q0AreX4NGmBwgK0-238">
          <mxGeometry relative="1" as="geometry" />
        </mxCell>
        <mxCell id="qO7M0q0AreX4NGmBwgK0-227" value="" style="rhombus;whiteSpace=wrap;html=1;" vertex="1" parent="1">
          <mxGeometry x="4389" y="320" width="72" height="80" as="geometry" />
        </mxCell>
        <mxCell id="qO7M0q0AreX4NGmBwgK0-235" style="edgeStyle=orthogonalEdgeStyle;rounded=0;orthogonalLoop=1;jettySize=auto;html=1;exitX=0.5;exitY=1;exitDx=0;exitDy=0;entryX=0.5;entryY=0;entryDx=0;entryDy=0;" edge="1" parent="1" source="qO7M0q0AreX4NGmBwgK0-230" target="qO7M0q0AreX4NGmBwgK0-232">
          <mxGeometry relative="1" as="geometry" />
        </mxCell>
        <mxCell id="qO7M0q0AreX4NGmBwgK0-230" value="Возврат доступных шаблонов для проекта" style="rounded=1;whiteSpace=wrap;html=1;" vertex="1" parent="1">
          <mxGeometry x="4265" y="400" width="124" height="60" as="geometry" />
        </mxCell>
        <mxCell id="qO7M0q0AreX4NGmBwgK0-237" style="edgeStyle=orthogonalEdgeStyle;rounded=0;orthogonalLoop=1;jettySize=auto;html=1;exitX=0.5;exitY=1;exitDx=0;exitDy=0;entryX=0.5;entryY=0;entryDx=0;entryDy=0;" edge="1" parent="1" source="qO7M0q0AreX4NGmBwgK0-232" target="qO7M0q0AreX4NGmBwgK0-233">
          <mxGeometry relative="1" as="geometry" />
        </mxCell>
        <mxCell id="qO7M0q0AreX4NGmBwgK0-232" value="Получение информации о проекте" style="rounded=1;whiteSpace=wrap;html=1;" vertex="1" parent="1">
          <mxGeometry x="4265" y="480" width="120" height="60" as="geometry" />
        </mxCell>
        <mxCell id="qO7M0q0AreX4NGmBwgK0-253" style="edgeStyle=orthogonalEdgeStyle;rounded=0;orthogonalLoop=1;jettySize=auto;html=1;exitX=0.5;exitY=1;exitDx=0;exitDy=0;entryX=0.5;entryY=0;entryDx=0;entryDy=0;" edge="1" parent="1" source="qO7M0q0AreX4NGmBwgK0-233" target="qO7M0q0AreX4NGmBwgK0-251">
          <mxGeometry relative="1" as="geometry">
            <Array as="points">
              <mxPoint x="4327" y="750" />
              <mxPoint x="4451" y="750" />
            </Array>
          </mxGeometry>
        </mxCell>
        <mxCell id="qO7M0q0AreX4NGmBwgK0-233" value="Запись проекта в базу данных" style="rounded=1;whiteSpace=wrap;html=1;" vertex="1" parent="1">
          <mxGeometry x="4267" y="560" width="120" height="60" as="geometry" />
        </mxCell>
        <mxCell id="qO7M0q0AreX4NGmBwgK0-250" style="edgeStyle=orthogonalEdgeStyle;rounded=0;orthogonalLoop=1;jettySize=auto;html=1;exitX=0.5;exitY=1;exitDx=0;exitDy=0;entryX=0.5;entryY=0;entryDx=0;entryDy=0;" edge="1" parent="1" source="qO7M0q0AreX4NGmBwgK0-238" target="qO7M0q0AreX4NGmBwgK0-242">
          <mxGeometry relative="1" as="geometry" />
        </mxCell>
        <mxCell id="qO7M0q0AreX4NGmBwgK0-238" value="Возврат данных о проекте в онлайн редактор" style="rounded=1;whiteSpace=wrap;html=1;" vertex="1" parent="1">
          <mxGeometry x="4559" y="400" width="124" height="60" as="geometry" />
        </mxCell>
        <mxCell id="qO7M0q0AreX4NGmBwgK0-245" style="edgeStyle=orthogonalEdgeStyle;rounded=0;orthogonalLoop=1;jettySize=auto;html=1;exitX=0;exitY=0.5;exitDx=0;exitDy=0;entryX=0.5;entryY=0;entryDx=0;entryDy=0;" edge="1" parent="1" source="qO7M0q0AreX4NGmBwgK0-242" target="qO7M0q0AreX4NGmBwgK0-243">
          <mxGeometry relative="1" as="geometry" />
        </mxCell>
        <mxCell id="qO7M0q0AreX4NGmBwgK0-246" style="edgeStyle=orthogonalEdgeStyle;rounded=0;orthogonalLoop=1;jettySize=auto;html=1;exitX=1;exitY=0.5;exitDx=0;exitDy=0;entryX=0.5;entryY=0;entryDx=0;entryDy=0;" edge="1" parent="1" source="qO7M0q0AreX4NGmBwgK0-242" target="qO7M0q0AreX4NGmBwgK0-244">
          <mxGeometry relative="1" as="geometry" />
        </mxCell>
        <mxCell id="qO7M0q0AreX4NGmBwgK0-242" value="" style="rhombus;whiteSpace=wrap;html=1;" vertex="1" parent="1">
          <mxGeometry x="4585" y="480" width="72" height="80" as="geometry" />
        </mxCell>
        <mxCell id="qO7M0q0AreX4NGmBwgK0-248" style="edgeStyle=orthogonalEdgeStyle;rounded=0;orthogonalLoop=1;jettySize=auto;html=1;exitX=0.5;exitY=1;exitDx=0;exitDy=0;entryX=0.5;entryY=0;entryDx=0;entryDy=0;" edge="1" parent="1" source="qO7M0q0AreX4NGmBwgK0-243" target="qO7M0q0AreX4NGmBwgK0-247">
          <mxGeometry relative="1" as="geometry">
            <Array as="points">
              <mxPoint x="4523" y="630" />
              <mxPoint x="4621" y="630" />
            </Array>
          </mxGeometry>
        </mxCell>
        <mxCell id="qO7M0q0AreX4NGmBwgK0-243" value="Запрет на работу с файловой структурой" style="rounded=1;whiteSpace=wrap;html=1;" vertex="1" parent="1">
          <mxGeometry x="4461" y="560" width="124" height="60" as="geometry" />
        </mxCell>
        <mxCell id="qO7M0q0AreX4NGmBwgK0-249" style="edgeStyle=orthogonalEdgeStyle;rounded=0;orthogonalLoop=1;jettySize=auto;html=1;exitX=0.5;exitY=1;exitDx=0;exitDy=0;entryX=0.5;entryY=0;entryDx=0;entryDy=0;" edge="1" parent="1" source="qO7M0q0AreX4NGmBwgK0-244" target="qO7M0q0AreX4NGmBwgK0-247">
          <mxGeometry relative="1" as="geometry">
            <Array as="points">
              <mxPoint x="4719" y="630" />
              <mxPoint x="4621" y="630" />
            </Array>
          </mxGeometry>
        </mxCell>
        <mxCell id="qO7M0q0AreX4NGmBwgK0-244" value="Разрешение на работу с файловой структурой" style="rounded=1;whiteSpace=wrap;html=1;" vertex="1" parent="1">
          <mxGeometry x="4657" y="560" width="124" height="60" as="geometry" />
        </mxCell>
        <mxCell id="qO7M0q0AreX4NGmBwgK0-252" style="edgeStyle=orthogonalEdgeStyle;rounded=0;orthogonalLoop=1;jettySize=auto;html=1;exitX=0.5;exitY=1;exitDx=0;exitDy=0;entryX=0.5;entryY=0;entryDx=0;entryDy=0;" edge="1" parent="1" source="qO7M0q0AreX4NGmBwgK0-247" target="qO7M0q0AreX4NGmBwgK0-251">
          <mxGeometry relative="1" as="geometry">
            <mxPoint x="4481" y="770" as="targetPoint" />
            <Array as="points">
              <mxPoint x="4621" y="750" />
              <mxPoint x="4451" y="750" />
            </Array>
          </mxGeometry>
        </mxCell>
        <mxCell id="qO7M0q0AreX4NGmBwgK0-247" value="" style="rhombus;whiteSpace=wrap;html=1;" vertex="1" parent="1">
          <mxGeometry x="4585" y="650" width="72" height="80" as="geometry" />
        </mxCell>
        <mxCell id="qO7M0q0AreX4NGmBwgK0-273" style="edgeStyle=orthogonalEdgeStyle;rounded=0;orthogonalLoop=1;jettySize=auto;html=1;exitX=0.5;exitY=1;exitDx=0;exitDy=0;" edge="1" parent="1" source="qO7M0q0AreX4NGmBwgK0-251" target="qO7M0q0AreX4NGmBwgK0-264">
          <mxGeometry relative="1" as="geometry" />
        </mxCell>
        <mxCell id="qO7M0q0AreX4NGmBwgK0-251" value="" style="rhombus;whiteSpace=wrap;html=1;" vertex="1" parent="1">
          <mxGeometry x="4415" y="765" width="72" height="80" as="geometry" />
        </mxCell>
        <mxCell id="qO7M0q0AreX4NGmBwgK0-254" value="" style="ellipse;html=1;shape=endState;fillColor=#000000;strokeColor=#ff0000;" vertex="1" parent="1">
          <mxGeometry x="4256" y="1000" width="30" height="30" as="geometry" />
        </mxCell>
        <mxCell id="qO7M0q0AreX4NGmBwgK0-256" value="[Открытие редактора без проекта]" style="text;html=1;strokeColor=none;fillColor=none;align=center;verticalAlign=middle;whiteSpace=wrap;rounded=0;" vertex="1" parent="1">
          <mxGeometry x="4205" y="320" width="195" height="52.5" as="geometry" />
        </mxCell>
        <mxCell id="qO7M0q0AreX4NGmBwgK0-257" value="[Открытие редактора с проектом]" style="text;html=1;strokeColor=none;fillColor=none;align=center;verticalAlign=middle;whiteSpace=wrap;rounded=0;" vertex="1" parent="1">
          <mxGeometry x="4461" y="318.75" width="195" height="52.5" as="geometry" />
        </mxCell>
        <mxCell id="qO7M0q0AreX4NGmBwgK0-258" value="[Проект принадлежит текущему пользователю]" style="text;html=1;strokeColor=none;fillColor=none;align=center;verticalAlign=middle;whiteSpace=wrap;rounded=0;" vertex="1" parent="1">
          <mxGeometry x="4645" y="470" width="195" height="52.5" as="geometry" />
        </mxCell>
        <mxCell id="qO7M0q0AreX4NGmBwgK0-259" value="[Проект не принадлежит текущему пользователю]" style="text;html=1;strokeColor=none;fillColor=none;align=center;verticalAlign=middle;whiteSpace=wrap;rounded=0;" vertex="1" parent="1">
          <mxGeometry x="4410" y="467.5" width="195" height="52.5" as="geometry" />
        </mxCell>
        <mxCell id="qO7M0q0AreX4NGmBwgK0-261" style="edgeStyle=orthogonalEdgeStyle;rounded=0;orthogonalLoop=1;jettySize=auto;html=1;exitX=1;exitY=0.5;exitDx=0;exitDy=0;" edge="1" parent="1" source="qO7M0q0AreX4NGmBwgK0-260" target="qO7M0q0AreX4NGmBwgK0-227">
          <mxGeometry relative="1" as="geometry">
            <Array as="points">
              <mxPoint x="4425" y="290" />
            </Array>
          </mxGeometry>
        </mxCell>
        <mxCell id="qO7M0q0AreX4NGmBwgK0-263" style="edgeStyle=orthogonalEdgeStyle;rounded=0;orthogonalLoop=1;jettySize=auto;html=1;exitX=0;exitY=0.5;exitDx=0;exitDy=0;" edge="1" parent="1" source="qO7M0q0AreX4NGmBwgK0-260" target="qO7M0q0AreX4NGmBwgK0-262">
          <mxGeometry relative="1" as="geometry" />
        </mxCell>
        <mxCell id="qO7M0q0AreX4NGmBwgK0-260" value="" style="rhombus;whiteSpace=wrap;html=1;" vertex="1" parent="1">
          <mxGeometry x="4184" y="250" width="72" height="80" as="geometry" />
        </mxCell>
        <mxCell id="qO7M0q0AreX4NGmBwgK0-268" style="edgeStyle=orthogonalEdgeStyle;rounded=0;orthogonalLoop=1;jettySize=auto;html=1;exitX=0.5;exitY=1;exitDx=0;exitDy=0;entryX=0.5;entryY=0;entryDx=0;entryDy=0;" edge="1" parent="1" source="qO7M0q0AreX4NGmBwgK0-262" target="qO7M0q0AreX4NGmBwgK0-264">
          <mxGeometry relative="1" as="geometry">
            <mxPoint x="4290" y="880" as="targetPoint" />
            <Array as="points">
              <mxPoint x="4144" y="870" />
              <mxPoint x="4271" y="870" />
            </Array>
          </mxGeometry>
        </mxCell>
        <mxCell id="qO7M0q0AreX4NGmBwgK0-262" value="Возврат ошибки: страница не найдена" style="rounded=1;whiteSpace=wrap;html=1;" vertex="1" parent="1">
          <mxGeometry x="4080" y="415" width="129" height="60" as="geometry" />
        </mxCell>
        <mxCell id="qO7M0q0AreX4NGmBwgK0-265" style="edgeStyle=orthogonalEdgeStyle;rounded=0;orthogonalLoop=1;jettySize=auto;html=1;exitX=0.5;exitY=1;exitDx=0;exitDy=0;" edge="1" parent="1" source="qO7M0q0AreX4NGmBwgK0-264" target="qO7M0q0AreX4NGmBwgK0-254">
          <mxGeometry relative="1" as="geometry" />
        </mxCell>
        <mxCell id="qO7M0q0AreX4NGmBwgK0-264" value="" style="rhombus;whiteSpace=wrap;html=1;" vertex="1" parent="1">
          <mxGeometry x="4235" y="895" width="72" height="80" as="geometry" />
        </mxCell>
        <mxCell id="qO7M0q0AreX4NGmBwgK0-270" value="[Открытие пустого редактора или с существующим проектом]" style="text;html=1;strokeColor=none;fillColor=none;align=center;verticalAlign=middle;whiteSpace=wrap;rounded=0;" vertex="1" parent="1">
          <mxGeometry x="4248.5" y="247.5" width="195" height="52.5" as="geometry" />
        </mxCell>
        <mxCell id="qO7M0q0AreX4NGmBwgK0-271" value="[Открытие редактора с не существующим проектом]" style="text;html=1;strokeColor=none;fillColor=none;align=center;verticalAlign=middle;whiteSpace=wrap;rounded=0;" vertex="1" parent="1">
          <mxGeometry x="4010" y="240" width="195" height="52.5" as="geometry" />
        </mxCell>
      </root>
    </mxGraphModel>
  </diagram>
</mxfile>
